<svg width="27" height="56" viewBox="0 0 27 56" fill="none" xmlns="http://www.w3.org/2000/svg">
<path d="M2.92515 45.5199C1.5494 48.5302 1.2646 51.5776 1.80114 54.8486L3.14525 54.5962C3.10535 54.0719 3.07095 53.5918 3.03242 53.1118C2.84395 50.7789 3.1535 48.5288 4.14404 46.3932C4.21753 46.2581 4.29789 46.1269 4.38479 46C4.7246 46.0855 5.07268 46.16 5.40424 46.2594C8.94907 47.3078 12.4934 48.3582 16.0373 49.4103C16.3487 49.5118 16.6657 49.5951 16.9866 49.66C18.1422 49.8573 19.1245 49.5221 19.8977 48.6323C20.5576 47.8863 20.9247 46.9254 20.9308 45.9283C20.9391 44.4852 20.1453 43.5375 18.8507 42.9967C16.4652 41.9992 14.0742 41.0156 11.6872 40.0237C10.7242 39.6222 9.7612 39.2139 8.68949 38.76C9.33884 36.8893 9.96892 35.0737 10.6375 33.1437L9.3072 32.6374C8.7569 34.1784 8.22725 35.6559 7.70172 37.1335C7.52563 37.6273 7.34953 38.1226 7.18857 38.622C6.92993 39.4249 7.02621 39.6581 7.81313 39.9892C9.62361 40.7507 11.4423 41.4929 13.257 42.2434C14.8611 42.9056 16.4693 43.5554 18.0721 44.2369C19.5345 44.8619 19.8605 45.8427 19.1121 47.2334C18.6361 48.1149 17.9689 48.4391 16.9907 48.1618C14.5685 47.4757 12.1504 46.7698 9.73645 46.0442C7.63707 45.4178 5.53903 44.7805 3.45066 44.1128C1.86993 43.6065 1.37328 42.9718 1.41868 41.3067C1.44874 39.8286 1.57376 38.354 1.79291 36.892C2.46141 32.4786 3.51419 28.1324 4.93922 23.9033C5.18497 23.19 5.47913 22.4944 5.81968 21.8215C6.81159 19.8515 9.30446 18.6857 11.4492 19.1368C12.2237 19.2992 12.9322 19.6897 13.484 20.2584C13.9598 20.7096 14.3855 21.211 14.7538 21.7539C16.534 24.5586 18.9979 26.6362 21.715 28.4545C22.0753 28.6814 22.4217 28.9297 22.7523 29.1981C23.8419 30.1362 24.2409 31.3447 23.963 32.7395C23.7374 33.8694 22.9738 34.5757 21.8994 34.9109C21.4385 35.0489 20.9364 35.0737 20.4493 35.1179C20.0091 35.1593 19.4863 34.9799 19.2676 35.5607C19.0433 36.1691 19.5427 36.434 19.9018 36.7554C21.1392 37.8342 22.2473 39.0537 23.2036 40.3893C24.2354 41.8475 25.0374 43.4106 25.3938 45.1847C25.878 47.5921 25.3071 49.7539 23.8405 51.6687C23.1664 52.5475 22.3547 53.3242 21.5183 54.2361L22.3437 55.297C25.1764 52.9296 27.1244 50.205 26.9855 46.3684C26.9071 44.161 26.1339 42.1896 24.937 40.392C24.1776 39.2511 23.2558 38.2192 22.4029 37.1417C22.2474 36.9445 22.0727 36.7637 21.8526 36.5099C22.0755 36.4174 22.2131 36.3485 22.3589 36.3016C25.7446 35.2269 26.4861 31.1723 24.2202 28.6049C23.8588 28.227 23.4601 27.8868 23.0302 27.5895C22.1126 26.8997 21.1716 26.2472 20.2512 25.5643C18.699 24.4036 17.3541 22.9874 16.2739 21.3759C15.888 20.8063 15.4691 20.26 15.0193 19.7397C12.543 16.8757 9.36499 17.2868 7.18582 18.4691C5.77706 19.2348 4.72049 20.3467 4.19909 21.8629C3.41904 24.124 2.65137 26.3948 2.02816 28.7015C1.1493 31.8635 0.520905 35.0903 0.148874 38.3516C0.0242116 39.5263 -0.018071 40.7083 0.0223163 41.8889C0.0800975 43.5444 0.858753 44.7584 2.4835 45.3227C2.58944 45.3709 2.70503 45.4275 2.92515 45.5199Z" fill="white"/>
<path d="M17.2673 0.599393C16.1356 0.59316 15.0139 0.812236 13.9672 1.24395C12.9206 1.67566 11.9698 2.31142 11.17 3.11435C10.3702 3.91728 9.7373 4.87143 9.30796 5.92147C8.87862 6.97151 8.66141 8.09656 8.66889 9.23142C8.66889 14.0061 12.521 17.8234 17.3195 17.8138C22.0356 17.8027 25.9289 13.9606 25.878 9.22727C25.8175 3.87588 21.5225 0.512479 17.2673 0.599393ZM24.4101 9.21762C24.4019 13.1591 21.2115 16.3845 17.3071 16.3914C15.8874 16.4035 14.4961 15.9922 13.31 15.2098C12.1238 14.4273 11.1962 13.3091 10.645 11.9971C10.0938 10.685 9.94387 9.23825 10.2142 7.84055C10.4845 6.44285 11.1629 5.15724 12.1632 4.14691C13.1636 3.13658 14.4407 2.44713 15.8326 2.16609C17.2244 1.88505 18.6682 2.02511 19.9805 2.56846C21.2928 3.11181 22.4145 4.03395 23.2032 5.21782C23.9919 6.40169 24.412 7.79388 24.4101 9.21762Z" fill="white"/>
</svg>
