<svg width="200" height="221" viewBox="0 0 200 221" fill="none" xmlns="http://www.w3.org/2000/svg">
<path d="M54.0281 57.0309C52.4029 55.6486 49.3366 56.478 46.7303 58.8432C44.8905 55.7715 42.2229 54.1127 40.2604 54.9728C38.298 55.8329 37.6234 59.949 39.3405 63.8808C39.7875 65.2002 40.549 66.3905 41.5588 67.3486C42.5686 68.3067 43.7964 69.0037 45.1358 69.3792C46.5278 69.4225 47.9088 69.1198 49.1555 68.498C50.4022 67.8762 51.4757 66.9548 52.2803 65.816C55.1012 62.5907 55.9292 58.6282 54.0281 57.0309Z" fill="#FFC5D2"/>
<path d="M58.413 30.829C56.9412 30.4604 55.3468 31.9962 54.4269 34.3615C52.3111 33.0406 50.042 32.8563 49.1222 34.0543C48.2023 35.2523 49.1222 38.0475 51.4526 39.9213C52.0875 40.7174 52.9538 41.2961 53.9315 41.5773C54.9092 41.8585 55.9499 41.8284 56.9097 41.491C57.8696 41.1536 58.701 40.5257 59.2889 39.6942C59.8768 38.8626 60.1923 37.8686 60.1915 36.8496C60.8968 33.9314 60.0995 31.2283 58.413 30.829Z" fill="#FFC5D2"/>
<path d="M133.139 29.9689C134.396 33.8086 141.479 55.28 128.6 65.8467C119.923 73.0039 104.806 73.1882 99.6852 66.6454C94.0739 59.3961 105.235 49.843 103.089 29.9689C101.556 15.501 91.4983 7.54523 95.0245 3.4291C97.6922 0.35737 105.051 2.59973 107.719 3.4291C113.718 5.57952 119.136 9.09601 123.547 13.7015C127.958 18.307 131.242 23.8757 133.139 29.9689Z" fill="#3F469A"/>
<path d="M108.363 56.8466C111.429 67.1983 122.1 100.987 103.334 126.298C88.0027 146.91 60.406 152.193 57.3397 148.016C56.4505 146.818 56.2358 143.224 53.2002 141.504C51.9737 140.797 51.6058 141.166 50.6552 140.398C48.4475 138.616 49.766 135.944 47.7729 133.179C46.4544 131.336 45.5038 131.981 43.8173 130.107C42.0762 128.033 41.169 125.382 41.2724 122.674C41.4563 117.636 46.0864 116.131 49.2141 111.462C55.7759 101.725 46.1478 93.0316 52.2804 82.4955C56.6345 74.8776 63.0737 77.5808 65.9867 70.2086C69.2676 61.9456 62.9204 54.4813 67.7958 47.9385C69.4516 45.7883 70.4941 46.1262 72.8552 44.1296C82.7286 35.7745 77.0254 18.4499 80.9809 16.8219C84.9364 15.1939 100.759 32.3648 108.363 56.8466Z" fill="#3F469A"/>
<path d="M58.1981 149.797C56.9374 149.868 55.6944 149.474 54.7026 148.691C53.6251 147.569 52.7809 146.243 52.2189 144.79C51.8871 143.838 51.3536 142.968 50.6551 142.241C50.3066 142.052 49.9358 141.907 49.5513 141.811C48.9995 141.704 48.483 141.461 48.0487 141.104C47.4917 140.608 47.0413 140.004 46.725 139.328C46.4087 138.652 46.2331 137.919 46.2089 137.172C46.1 135.935 45.6894 134.743 45.0131 133.701C44.61 133.12 44.0446 132.672 43.388 132.411C42.5118 132.002 41.729 131.416 41.0883 130.691C39.2152 128.476 38.2412 125.636 38.3592 122.735C38.5215 121.243 38.9959 119.801 39.7514 118.504C40.5069 117.208 41.5266 116.085 42.7441 115.21C44.1233 113.994 45.358 112.623 46.4236 111.124C49.4899 106.424 48.8153 101.909 47.9567 97.2091C46.4633 92.2248 46.9466 86.8555 49.3059 82.2191C51.0218 79.2403 53.7061 76.9416 56.9104 75.707C58.2891 75.265 59.5534 74.5238 60.6134 73.5363C61.6734 72.5487 62.503 71.3391 63.0429 69.9936C64.13 66.5601 64.2467 62.892 63.3802 59.3961C62.7363 55.4336 62.0924 51.3174 64.944 47.5699C65.328 47.0591 65.7705 46.5951 66.2625 46.1877C67.5021 45.1491 68.8609 44.2622 70.3101 43.546C71.3219 43.0545 73.9896 39.6449 80.4595 22.0438L81.9006 22.566C75.0321 41.2114 72.3645 44.2525 70.9233 44.8975C69.6041 45.5842 68.3604 46.4078 67.2131 47.3549C66.8132 47.6702 66.462 48.0428 66.1705 48.4607C63.7175 51.686 64.2695 55.1264 64.8827 59.1196C65.8234 62.8924 65.6745 66.8553 64.4534 70.5465C63.8485 72.0609 62.9245 73.4267 61.7444 74.5506C60.5643 75.6744 59.1559 76.5299 57.6155 77.0586C54.6991 78.1708 52.2527 80.2529 50.6858 82.9563C47.8954 87.8096 48.6927 92.1715 49.5206 96.902C50.3485 101.632 51.2683 106.732 47.7728 111.953C46.5788 113.582 45.2 115.067 43.6639 116.377C42.594 117.12 41.6937 118.081 41.0224 119.199C40.3511 120.316 39.9241 121.563 39.7698 122.858C39.6883 125.359 40.5164 127.804 42.1001 129.739C42.6089 130.317 43.2365 130.778 43.9399 131.09C44.8181 131.468 45.5726 132.085 46.1169 132.872C46.9571 134.092 47.4645 135.511 47.5888 136.988C47.5904 137.56 47.7051 138.126 47.9261 138.653C48.1472 139.18 48.4702 139.658 48.8767 140.06C49.1433 140.277 49.4592 140.425 49.7965 140.49C50.3222 140.613 50.8279 140.809 51.299 141.074C52.3321 141.911 53.0993 143.032 53.5067 144.299C53.9695 145.553 54.6786 146.702 55.5919 147.678C56.8184 148.722 59.1181 148.691 62.491 147.678L62.9816 149.121C61.4339 149.604 59.8186 149.832 58.1981 149.797Z" fill="#3F469A"/>
<path d="M146.998 135.36L161.808 130.292C163.273 117.613 163.396 104.815 162.176 92.1101C161.604 86.2328 160.817 80.7446 159.815 75.6456C157.393 66.4304 150.218 62.1607 146.416 63.3586C142.613 64.5566 140.59 70.7922 142.123 78.0108L146.998 135.36Z" fill="#FF8C64"/>
<path d="M148.685 165.801C152.763 173.634 142.859 190.621 139.976 195.351C132.247 199.385 123.639 201.433 114.925 201.31C92.1114 200.88 77.6692 185.061 75.0628 181.958C76.9619 180.094 78.5648 177.95 79.8157 175.6C83.1579 169.088 85.427 157.538 86.2549 155.664L87.4507 153.084C91.2222 144.483 88.9838 136.189 87.4507 124.578C86.9601 120.677 86.5615 116.53 86.1935 112.291C85.4269 103.353 84.8443 94.3217 83.7098 87.1338V86.6731C83.4365 84.8022 83.0681 82.9465 82.606 81.1132C82.4527 80.3146 82.3299 79.5467 82.238 78.7787C82.146 78.0108 82.238 78.1029 82.238 77.7651C81.9473 75.298 82.0405 72.8007 82.514 70.3622C82.7823 69.8244 83.1115 69.3194 83.4951 68.857C87.236 64.0958 94.2579 64.5566 100.145 60.5019L101.096 59.8261L101.341 59.6111C105.246 59.2127 109.18 59.2127 113.085 59.6111C126.791 60.6555 126.73 65.1402 136.205 63.9423C141.785 63.2665 145.036 62.7443 148.654 64.8945C149.85 65.5703 153.621 67.6283 155.308 75.6456C155.293 75.7268 155.293 75.8101 155.308 75.8913C151.506 86.2738 148.654 95.0589 146.661 101.602C145.618 105.001 144.698 108.165 143.901 111.093C141.755 118.558 140.344 124.609 139.455 129.524C136.849 143.377 138.29 148.2 139.823 151.487C141.331 154.438 143.195 157.192 145.373 159.688C146.611 161.65 147.718 163.692 148.685 165.801Z" fill="#FF8C64"/>
<path d="M101.924 99.3286C101.922 102.123 101.049 104.848 99.4276 107.122C97.8061 109.396 95.5164 111.107 92.878 112.015C91.4762 112.496 90.0056 112.745 88.5239 112.752C87.7002 112.75 86.8787 112.667 86.0708 112.506C83.2649 111.985 80.6985 110.579 78.7454 108.495C76.7923 106.411 75.5544 103.756 75.2122 100.918C74.8701 98.0794 75.4414 95.2059 76.843 92.7155C78.2446 90.2252 80.4032 88.2482 83.0045 87.0724L83.4645 86.8881C85.497 86.0696 87.6987 85.7627 89.877 85.9944C92.0553 86.226 94.1437 86.9891 95.9593 88.2168C97.775 89.4445 99.2624 91.0995 100.292 93.0366C101.321 94.9738 101.86 97.1342 101.862 99.3286H101.924Z" fill="#FF8C64"/>
<path d="M112.809 93.8302C112.809 95.9557 113.44 98.0332 114.621 99.7987C115.803 101.564 117.481 102.938 119.444 103.746C121.407 104.553 123.565 104.758 125.644 104.335C127.723 103.911 129.629 102.878 131.121 101.366C132.612 99.8545 133.622 97.9329 134.021 95.8453C134.42 93.7577 134.19 91.5985 133.362 89.6419C132.533 87.6853 131.142 86.0196 129.366 84.8565C127.59 83.6935 125.509 83.0855 123.388 83.1099C120.568 83.1342 117.873 84.2754 115.891 86.2841C113.909 88.2928 112.801 91.0057 112.809 93.8302Z" fill="#FF8C64"/>
<path d="M155.001 75.7684C122.468 76.9971 109.865 73.2496 87.3281 77.7958C86.4389 77.9801 84.5378 78.3794 82.0541 78.9938C81.099 76.8612 80.9041 74.4646 81.5022 72.2052C81.6548 71.6353 81.8816 71.0879 82.1768 70.5772C82.4444 70.0459 82.7627 69.5419 83.1273 69.0721C86.8989 64.3109 93.9207 64.7716 99.7773 60.717L100.728 60.0412L101.004 59.8262C101.863 59.0774 102.571 58.1701 103.089 57.1537C104.811 53.3695 104.998 49.063 103.61 45.1433C102.951 43.3268 101.975 41.642 100.728 40.1671L108.332 35.5595L116.458 29.0474C117.562 31.9655 119.187 36.0816 121.333 40.9964C125.871 51.3789 128.294 56.5394 131.146 58.7818C139.363 65.2324 149.175 60.0719 153.652 66.3382C155.33 69.1789 155.815 72.57 155.001 75.7684Z" fill="#FF8C64"/>
<path d="M114.005 63.4508C113.765 63.9312 113.374 64.3185 112.891 64.5519C112.408 64.7854 111.862 64.8519 111.337 64.7409C110.86 64.5516 110.434 64.2529 110.094 63.8688C109.753 63.4847 109.506 63.0259 109.375 62.5293L114.005 63.4508Z" fill="#EA522F"/>
<path d="M108.363 66.6147C107.953 66.9266 107.511 67.1943 107.045 67.4133C105.586 68.0779 103.96 68.2815 102.384 67.9969C99.2902 67.5945 96.2197 67.0306 93.1848 66.3075L101.954 66.7682L108.363 66.6147Z" fill="#EA522F"/>
<path d="M114.005 66.6147C114.662 66.9229 115.338 67.1896 116.029 67.4133C118.326 68.0841 120.736 68.2826 123.112 67.9969C129.244 67.4748 135.009 66.6147 136.941 66.3075L123.633 66.7682L114.005 66.6147Z" fill="#EA522F"/>
<path d="M97.8453 178.395C116.812 178.395 132.188 162.992 132.188 143.992C132.188 124.991 116.812 109.588 97.8453 109.588C78.8785 109.588 63.5028 124.991 63.5028 143.992C63.5028 162.992 78.8785 178.395 97.8453 178.395Z" fill="#FF8C64"/>
<path d="M111.766 53.2833C111.233 54.9013 110.083 56.2423 108.566 57.0135C107.049 57.7847 105.29 57.9235 103.671 57.3995L103.089 57.1537C104.811 53.3695 104.998 49.063 103.61 45.1432C105.062 44.4575 106.724 44.3693 108.24 44.8975C109.815 45.5446 111.07 46.79 111.731 48.3614C112.392 49.9329 112.404 51.7025 111.766 53.2833Z" fill="#EA522F"/>
<path d="M119.31 37.2489C117.491 42.9492 114.1 48.0181 109.528 51.8703C108.822 52.4329 108.036 52.8883 107.198 53.2219C106.344 53.5765 105.447 53.8142 104.53 53.9284C100.605 54.4506 94.6258 50.0887 94.1046 49.7201C91.4167 48.0495 89.1834 45.7385 87.6039 42.993C86.4081 40.5971 86.6228 39.3377 84.8137 35.4366C83.8325 33.3785 83.2192 32.3648 82.4526 31.1361V30.9518C82.1766 30.4604 81.87 29.9074 81.5633 29.2931C81.2305 28.7076 80.9336 28.1024 80.6742 27.4808C78.6926 23.8079 78.1251 19.5343 79.0796 15.4703C80.3038 12.1995 82.4306 9.34449 85.2122 7.23805C86.1216 6.53413 87.0741 5.88781 88.0639 5.30286L89.1678 4.68851C92.0302 3.23089 95.1572 2.36795 98.3609 2.15153C101.565 1.9351 104.779 2.36966 107.811 3.4291C120.076 8.86607 122.314 26.7743 119.31 37.2489Z" fill="#FF8C64"/>
<path d="M108.823 27.0815C107.945 28.5727 106.596 29.729 104.99 30.3682C104.131 30.7061 102.169 31.474 101.034 30.3682C100.765 30.1148 100.556 29.8036 100.423 29.4579C100.29 29.1121 100.237 28.7408 100.268 28.3716C100.339 27.7137 100.644 27.1034 101.126 26.6514C101.885 25.8779 102.862 25.3569 103.927 25.159C104.991 24.9612 106.09 25.0962 107.075 25.5456C107.769 25.9138 108.368 26.4398 108.823 27.0815Z" fill="#EA522F"/>
<path d="M102.322 31.5355C101.833 31.5811 101.34 31.5811 100.85 31.5355C100.742 31.5308 100.636 31.5032 100.539 31.4545C100.443 31.4057 100.357 31.337 100.289 31.2528C100.22 31.1687 100.171 31.0709 100.143 30.9661C100.115 30.8612 100.109 30.7516 100.127 30.6445C100.144 30.5374 100.184 30.4353 100.244 30.3447C100.304 30.2542 100.382 30.1774 100.473 30.1194C100.565 30.0613 100.668 30.0234 100.775 30.0081C100.882 29.9927 100.992 30.0003 101.096 30.0303C102.179 30.2159 103.29 30.1529 104.346 29.846C106.257 29.2852 107.894 28.0385 108.945 26.3443C109.001 26.2588 109.073 26.1853 109.158 26.1281C109.242 26.0709 109.337 26.0311 109.437 26.0111C109.537 25.991 109.64 25.9912 109.74 26.0115C109.839 26.0318 109.934 26.0718 110.019 26.1292C110.103 26.1821 110.176 26.2516 110.232 26.3334C110.289 26.4153 110.329 26.5078 110.349 26.6054C110.369 26.7031 110.369 26.8037 110.349 26.9014C110.329 26.9991 110.29 27.0917 110.233 27.1736C108.975 29.1854 107.021 30.6619 104.745 31.3205C103.952 31.5135 103.136 31.5859 102.322 31.5355Z" fill="#122275"/>
<path d="M85.6416 37.0032C87.0451 37.3214 88.5089 37.247 89.8731 36.7881C90.5784 36.5424 92.9394 35.7745 92.9394 34.3308C92.9229 33.9588 92.8201 33.5957 92.6391 33.2705C92.4581 32.9452 92.204 32.6667 91.8969 32.457C91.5589 32.2184 91.1707 32.0607 90.7623 31.9962C88.9532 31.6583 85.3656 32.4877 84.967 34.6686C84.915 35.0833 84.9481 35.5042 85.0641 35.9056C85.18 36.307 85.3766 36.6805 85.6416 37.0032Z" fill="#EA522F"/>
<path d="M86.8375 38.1397C85.7984 38.1374 84.7653 37.9821 83.7712 37.679C83.576 37.6179 83.4131 37.4816 83.3182 37.3001C83.2233 37.1187 83.2043 36.9069 83.2653 36.7114C83.3263 36.5158 83.4623 36.3526 83.6435 36.2575C83.8246 36.1625 84.0361 36.1434 84.2312 36.2045C86.1311 36.8299 88.1945 36.7315 90.0265 35.9281C91.0176 35.4673 91.9045 34.8088 92.6329 33.9929C92.7017 33.9194 92.7848 33.8609 92.8771 33.8208C92.9694 33.7808 93.0688 33.7602 93.1694 33.7602C93.27 33.7602 93.3695 33.7808 93.4618 33.8208C93.5541 33.8609 93.6373 33.9194 93.7061 33.9929C93.8465 34.1364 93.9252 34.3294 93.9252 34.5304C93.9252 34.7314 93.8465 34.9244 93.7061 35.068C92.8509 36.0631 91.7853 36.855 90.5867 37.3863C89.3881 37.9176 88.0865 38.175 86.7762 38.1397H86.8375Z" fill="#122275"/>
<path d="M109.436 20.6001C107.23 20.8066 105.058 21.2811 102.966 22.0131C101.157 22.6627 99.429 23.5182 97.8149 24.5627C97.705 24.2235 97.633 23.8733 97.6002 23.5183C97.5634 22.7331 97.6886 21.9489 97.9681 21.2145C99.7159 20.6308 101.188 20.2008 102.292 19.9243C103.566 19.4993 104.905 19.3017 106.247 19.3407C107.405 19.4611 108.508 19.8967 109.436 20.6001Z" fill="#122275"/>
<path d="M96.987 21.4909C96.9311 21.9397 96.9311 22.3937 96.987 22.8425C96.942 23.4901 97.1033 24.1353 97.4477 24.6855C97.4987 24.1851 97.4987 23.6808 97.4477 23.1804C97.3717 22.6609 97.3717 22.1332 97.4477 21.6138C97.4252 21.4919 97.4252 21.367 97.4477 21.2452L96.987 21.4909Z" fill="#122275"/>
<path d="M88.8918 28.9245C87 29.2902 85.1577 29.8778 83.4031 30.6754L82.4526 31.1361V30.9518C82.1766 30.4604 81.87 29.9074 81.5633 29.2931L82.6059 28.6788C83.5872 28.1566 84.9056 27.4193 86.5921 26.6514C87.3084 26.9554 87.94 27.4299 88.4319 28.0337C88.6187 28.3121 88.773 28.6109 88.8918 28.9245Z" fill="#122275"/>
<path d="M87.3893 26.1599C87.7664 26.4082 88.1069 26.7081 88.4012 27.0507C88.8607 27.4961 89.1894 28.0592 89.3517 28.6788C89.3517 28.6788 88.4931 27.8801 88.2785 27.6037C87.9591 27.1895 87.5881 26.8178 87.1747 26.4978L86.868 26.2828L87.3893 26.1599Z" fill="#122275"/>
<path d="M97.8148 37.4332C97.1674 37.4017 96.5228 37.5393 95.9443 37.8325C95.3425 38.0849 94.8225 38.4996 94.4419 39.0305C95.0893 39.0449 95.7311 38.908 96.3166 38.6308C96.902 38.3536 97.415 37.9435 97.8148 37.4332Z" fill="#EA522F"/>
<path d="M96.0669 45.1433C95.9677 45.1474 95.8687 45.1314 95.7758 45.0962C95.683 45.061 95.5982 45.0074 95.5266 44.9385C95.4549 44.8696 95.3979 44.7869 95.3591 44.6954C95.3202 44.6039 95.3002 44.5055 95.3003 44.406C95.2997 44.2044 95.3752 44.0101 95.5117 43.862C95.6482 43.7138 95.8355 43.6229 96.0362 43.6074C97.9295 43.587 99.7905 43.113 101.464 42.2251C102.932 41.4662 104.235 40.422 105.296 39.1534C105.361 39.0747 105.44 39.0095 105.53 38.9616C105.619 38.9136 105.717 38.8838 105.819 38.8738C105.92 38.8638 106.022 38.8739 106.119 38.9034C106.216 38.9329 106.306 38.9813 106.385 39.0459C106.463 39.1104 106.529 39.1898 106.576 39.2795C106.624 39.3693 106.654 39.4676 106.664 39.5688C106.674 39.6701 106.664 39.7723 106.634 39.8697C106.605 39.9671 106.557 40.0577 106.492 40.1363C105.299 41.5812 103.829 42.7718 102.169 43.6381C100.27 44.6175 98.1713 45.1432 96.0362 45.174L96.0669 45.1433Z" fill="#EA522F"/>
<path d="M96.8338 44.9283C97.171 45.5119 99.4094 44.9283 101.341 44.0989C103.273 43.2695 105.481 41.918 105.235 41.0271C105.235 41.0271 104.806 40.7814 104.101 40.5664C101.219 39.7677 100.759 39.6449 100.329 39.8906C100.017 40.1167 99.6765 40.3024 99.3174 40.4435H98.9188C98.1522 40.6585 98.0603 40.4435 97.7843 40.72C97.4349 41.2923 97.2054 41.9298 97.1097 42.5937C97.0199 42.8755 96.9482 43.1628 96.895 43.4538C96.8031 44.406 96.7418 44.7439 96.8338 44.9283Z" fill="#EA522F"/>
<path d="M101.065 47.2935C100.885 47.2806 100.715 47.2046 100.586 47.0787C100.456 46.9528 100.375 46.7853 100.357 46.6054C100.339 46.4256 100.384 46.2451 100.486 46.0956C100.587 45.9462 100.738 45.8373 100.912 45.7883L102.077 45.4197C102.937 45.05 103.717 44.5182 104.377 43.8531C104.52 43.7124 104.713 43.6336 104.913 43.6336C105.114 43.6336 105.307 43.7124 105.45 43.8531C105.524 43.9248 105.583 44.0106 105.623 44.1056C105.664 44.2006 105.684 44.3028 105.684 44.406C105.684 44.5093 105.664 44.6114 105.623 44.7064C105.583 44.8014 105.524 44.8873 105.45 44.959C104.661 45.7804 103.711 46.4289 102.66 46.8634C102.2 47.0491 101.729 47.2031 101.249 47.3242L101.065 47.2935Z" fill="#EA522F"/>
<path d="M99.7466 92.6015C99.1946 92.6015 98.9186 92.1101 99.0106 91.7107L99.7159 87.7175C99.7531 87.5182 99.8675 87.3419 100.034 87.2268C100.201 87.1117 100.406 87.0672 100.605 87.1031C100.804 87.1405 100.98 87.2551 101.095 87.422C101.21 87.5888 101.254 87.7944 101.218 87.9939L100.513 91.9565C100.484 92.1382 100.39 92.3033 100.249 92.4217C100.109 92.5401 99.9303 92.6039 99.7466 92.6015Z" fill="#EA522F"/>
<path d="M100.114 88.3626C99.9842 88.3637 99.8559 88.3302 99.7428 88.2655C99.6297 88.2007 99.5357 88.107 99.4706 87.9939L97.9374 85.5673C97.8766 85.4827 97.8336 85.3865 97.811 85.2848C97.7885 85.183 97.7868 85.0776 97.8063 84.9752C97.8257 84.8728 97.8658 84.7754 97.924 84.6889C97.9822 84.6025 98.0574 84.5288 98.1449 84.4724C98.2325 84.4161 98.3306 84.3781 98.4332 84.361C98.5359 84.3438 98.6409 84.3477 98.742 84.3726C98.8431 84.3974 98.9381 84.4426 99.0212 84.5054C99.1042 84.5682 99.1737 84.6473 99.2252 84.7379L100.758 87.1953C100.862 87.367 100.894 87.5724 100.848 87.7675C100.802 87.9627 100.682 88.1321 100.513 88.2397C100.397 88.3218 100.257 88.3648 100.114 88.3626Z" fill="#EA522F"/>
<path d="M100.482 88.7312C100.293 88.7314 100.109 88.6663 99.9611 88.5469C99.8187 88.3981 99.7393 88.2 99.7393 87.9939C99.7393 87.7879 99.8187 87.5898 99.9611 87.441L102.598 84.3693C102.667 84.2958 102.75 84.2373 102.842 84.1973C102.935 84.1572 103.034 84.1366 103.135 84.1366C103.235 84.1366 103.335 84.1572 103.427 84.1973C103.519 84.2373 103.603 84.2958 103.671 84.3693C103.746 84.4409 103.805 84.5268 103.845 84.6218C103.885 84.7168 103.906 84.819 103.906 84.9222C103.906 85.0254 103.885 85.1276 103.845 85.2226C103.805 85.3176 103.746 85.4035 103.671 85.4751L101.004 88.5469C100.936 88.6144 100.854 88.666 100.764 88.6979C100.674 88.7298 100.578 88.7411 100.482 88.7312Z" fill="#EA522F"/>
<path d="M143.595 111.032C141.448 118.496 140.038 124.548 139.148 129.462C128.338 119.797 114.792 113.742 100.39 112.138C97.9237 111.912 95.4466 111.82 92.97 111.861C90.5476 111.861 88.2785 112.107 86.1628 112.353C82.9633 112.111 79.967 110.69 77.7527 108.363C75.5383 106.037 74.2632 102.972 74.1737 99.7587C74.237 97.0917 75.1145 94.5081 76.688 92.3558C78.284 90.0066 80.489 88.1375 83.0659 86.9495L83.5871 87.1953C86.8624 88.8237 90.3216 90.051 93.8899 90.8506C95.8176 91.2796 97.7757 91.5569 99.7466 91.68C104.211 91.9612 108.692 91.7655 113.116 91.0964C114.8 90.9993 116.473 90.7525 118.114 90.3592C119.865 89.7955 121.519 88.9668 123.02 87.9018L143.595 111.032Z" fill="#FFC5D2"/>
<path d="M83.5259 88.7312C83.3135 88.775 83.0944 88.775 82.882 88.7312C82.5104 88.5574 82.2217 88.2442 82.0783 87.8593C81.9349 87.4743 81.9483 87.0483 82.1155 86.6731L92.8475 62.8979C93.0148 62.5277 93.3217 62.2391 93.701 62.0952C94.0803 61.9512 94.5011 61.9637 94.8713 62.1299C95.0652 62.2017 95.243 62.3112 95.3944 62.4522C95.5459 62.5931 95.6679 62.7628 95.7534 62.9514C95.8389 63.1399 95.8863 63.3435 95.8928 63.5505C95.8993 63.7575 95.8647 63.9638 95.7911 64.1573L85.0591 87.9325C84.9166 88.2075 84.6929 88.4318 84.4185 88.5747C84.1442 88.7177 83.8325 88.7723 83.5259 88.7312Z" fill="#FFC5D2"/>
<path d="M121.395 92.5094C121.162 92.5557 120.922 92.5557 120.689 92.5094C120.331 92.314 120.064 91.9863 119.943 91.5961C119.823 91.206 119.86 90.7842 120.045 90.4206L135.653 60.5941C135.73 60.3912 135.849 60.207 136.002 60.0535C136.155 59.9 136.339 59.7808 136.542 59.7038C136.744 59.6267 136.961 59.5935 137.177 59.6064C137.393 59.6192 137.604 59.6779 137.796 59.7784C137.988 59.8789 138.157 60.0191 138.291 60.1897C138.425 60.3602 138.521 60.5572 138.574 60.7678C138.626 60.9784 138.633 61.1977 138.595 61.4113C138.557 61.6249 138.474 61.828 138.351 62.0071L122.744 91.8029C122.604 92.0327 122.405 92.2199 122.167 92.3445C121.93 92.469 121.662 92.526 121.395 92.5094Z" fill="#FFC5D2"/>
<path d="M94.7179 166.815L97.7842 172.037C114.981 168.29 131.321 161.34 145.956 151.548C149.821 148.897 153.546 146.046 157.117 143.009C158.288 142.518 159.345 141.79 160.221 140.87C161.097 139.951 161.774 138.859 162.209 137.665C162.644 136.47 162.828 135.199 162.748 133.93C162.669 132.661 162.328 131.422 161.747 130.292C160.906 129.353 159.881 128.597 158.736 128.072C157.591 127.546 156.351 127.261 155.092 127.235C153.833 127.21 152.582 127.443 151.416 127.921C150.251 128.399 149.196 129.112 148.317 130.015C144.921 131.446 141.623 133.098 138.443 134.961C122.223 144.545 118.267 154.558 102.292 163.221C99.8383 164.564 97.3095 165.764 94.7179 166.815Z" fill="#FF8C64"/>
<path d="M98.1828 166.077C98.0169 166.066 97.8593 166 97.7338 165.891C97.6082 165.781 97.5216 165.634 97.487 165.471C97.4524 165.308 97.4716 165.138 97.5418 164.987C97.6121 164.836 97.7294 164.712 97.8762 164.634C99.256 163.989 100.636 163.282 101.985 162.545C108.773 158.785 114.972 154.045 120.383 148.476C125.741 143.041 131.744 138.285 138.259 134.316L138.689 134.07C138.861 133.992 139.057 133.98 139.238 134.038C139.419 134.096 139.572 134.219 139.667 134.384C139.762 134.548 139.794 134.742 139.754 134.928C139.715 135.114 139.609 135.279 139.455 135.391L139.026 135.637C132.622 139.547 126.721 144.231 121.456 149.582C115.998 155.242 109.737 160.066 102.874 163.896C101.494 164.634 100.084 165.371 98.6735 166.016L98.1828 166.077Z" fill="#EA522F"/>
<path d="M101.28 171.944C101.076 171.969 100.872 171.911 100.711 171.785C100.55 171.658 100.445 171.472 100.421 171.269C100.397 171.065 100.454 170.86 100.58 170.699C100.707 170.537 100.892 170.433 101.096 170.409C115.273 166.954 128.818 161.284 141.233 153.606C141.32 153.55 141.416 153.512 141.517 153.494C141.618 153.476 141.722 153.479 141.822 153.501C141.922 153.524 142.016 153.567 142.1 153.627C142.183 153.688 142.253 153.764 142.307 153.852C142.402 154.025 142.43 154.228 142.385 154.422C142.34 154.615 142.224 154.784 142.061 154.896C129.499 162.659 115.8 168.401 101.464 171.914L101.28 171.944Z" fill="#EA522F"/>
<path d="M97.3855 165.893C90.722 161.133 83.2676 157.597 75.3695 155.449C75.1581 155.543 74.9676 155.678 74.8096 155.847C74.6515 156.016 74.5291 156.215 74.4497 156.432C74.2895 156.826 74.2895 157.267 74.4497 157.661C73.2394 156.71 72.202 155.556 71.3834 154.251C70.4022 152.685 69.1756 151.947 68.6543 152.224C68.1331 152.5 68.1025 153.944 68.8997 155.603C68.6968 155.745 68.5203 155.922 68.3784 156.125C68.077 156.641 67.8981 157.22 67.8556 157.817C67.813 158.413 67.908 159.011 68.1331 159.565C68.0857 160.148 68.0857 160.734 68.1331 161.316C68.2079 164.126 69.1986 166.834 70.9541 169.026L66.4773 167.153C65.4041 167.153 65.0361 167.153 64.9441 167.368C64.5149 168.412 70.8927 173.511 78.4358 174.678C82.5554 174.991 86.6983 174.628 90.701 173.603C94.0209 173.026 97.3067 172.267 100.544 171.33C99.5319 169.518 98.4587 167.705 97.3855 165.893Z" fill="#FF8C64"/>
<path d="M81.0422 175.63C80.1193 175.63 79.1974 175.569 78.2826 175.446C72.9611 174.707 68.0504 172.171 64.3616 168.258C64.2498 168.088 64.178 167.894 64.1514 167.692C64.1249 167.49 64.1443 167.285 64.2083 167.091C64.5763 166.2 65.8947 166.323 66.5386 166.385H66.7533L68.9303 167.306C67.8941 165.423 67.336 163.313 67.3052 161.163C67.2596 160.59 67.2596 160.015 67.3052 159.442C67.0529 158.798 66.9574 158.102 67.0267 157.413C67.096 156.724 67.3282 156.061 67.7038 155.48L67.9185 155.203C67.3052 153.637 67.2439 151.917 68.2252 151.364C69.2064 150.811 70.9542 152.07 71.966 153.668C72.4599 154.425 73.0358 155.126 73.6832 155.756C73.9451 155.208 74.4055 154.78 74.9709 154.558C75.1209 154.513 75.2809 154.513 75.4309 154.558C81.3008 156.156 86.9389 158.51 92.2035 161.562C94.074 162.637 95.9445 163.835 97.7229 165.094C97.807 165.152 97.8782 165.227 97.9319 165.314C97.9857 165.4 98.0209 165.497 98.0354 165.598C98.0498 165.699 98.043 165.802 98.0156 165.901C97.9882 165.999 97.9407 166.091 97.8762 166.17C97.8241 166.255 97.7543 166.329 97.6716 166.385C97.5889 166.442 97.4951 166.48 97.3965 166.498C97.2979 166.515 97.1966 166.511 97.0996 166.487C97.0025 166.462 96.9119 166.416 96.8337 166.354C95.0859 165.125 93.2767 163.958 91.4369 162.883C86.3842 159.944 80.9733 157.673 75.3389 156.125C75.1985 156.217 75.0995 156.36 75.0629 156.524C75.0629 156.709 75.0629 156.985 75.0629 157.2C75.1387 157.35 75.1587 157.522 75.1194 157.685C75.08 157.848 74.984 157.992 74.8484 158.091C74.7155 158.203 74.5471 158.265 74.3731 158.265C74.1991 158.265 74.0306 158.203 73.8977 158.091C72.5991 157.089 71.4794 155.874 70.5862 154.497C70.2003 153.792 69.6272 153.207 68.9303 152.808C68.8875 153.605 69.0568 154.4 69.421 155.111C69.5042 155.272 69.5253 155.459 69.48 155.634C69.4347 155.81 69.3264 155.963 69.1757 156.064L68.8384 156.401C68.6227 156.83 68.5104 157.304 68.5104 157.784C68.5104 158.264 68.6227 158.737 68.8384 159.166C68.8683 159.277 68.8683 159.393 68.8384 159.504C68.8068 160.046 68.8068 160.59 68.8384 161.132C68.9351 163.776 69.8815 166.319 71.5367 168.381C71.6388 168.519 71.6939 168.686 71.6939 168.857C71.6939 169.029 71.6388 169.196 71.5367 169.333C71.4329 169.472 71.284 169.569 71.1158 169.608C70.9476 169.648 70.771 169.626 70.6169 169.548L66.2627 167.736H65.9867C69.4559 170.982 73.8108 173.121 78.4972 173.88C82.5017 174.201 86.5319 173.859 90.4251 172.866H90.6704C93.5955 172.377 96.4923 171.731 99.348 170.931C99.4467 170.903 99.5499 170.895 99.6516 170.908C99.7533 170.921 99.8513 170.955 99.9399 171.006C100.029 171.058 100.106 171.126 100.167 171.208C100.229 171.29 100.274 171.384 100.299 171.484C100.326 171.581 100.333 171.682 100.32 171.782C100.307 171.882 100.273 171.978 100.222 172.064C100.17 172.15 100.101 172.225 100.019 172.284C99.9377 172.343 99.8449 172.384 99.7467 172.405C96.8644 173.204 93.89 173.88 90.9157 174.402H90.6704C87.501 175.081 84.2803 175.492 81.0422 175.63Z" fill="#EA522F"/>
<path d="M83.5257 164.081H83.2191C81.7766 163.504 80.3908 162.795 79.0795 161.961C77.3433 160.907 75.7465 159.637 74.3268 158.183C74.2161 158.035 74.1623 157.852 74.1754 157.668C74.1885 157.483 74.2676 157.31 74.398 157.179C74.5285 157.049 74.7017 156.969 74.8858 156.956C75.0698 156.943 75.2524 156.997 75.4 157.108C76.6962 158.423 78.1362 159.587 79.6928 160.579C80.9355 161.375 82.2494 162.054 83.6177 162.606C83.7121 162.64 83.7987 162.693 83.872 162.762C83.9454 162.83 84.0039 162.913 84.0441 163.005C84.0843 163.097 84.1053 163.196 84.1058 163.297C84.1063 163.397 84.0863 163.497 84.047 163.589C84.0066 163.708 83.938 163.814 83.8471 163.9C83.7563 163.985 83.646 164.048 83.5257 164.081Z" fill="#EA522F"/>
<path d="M74.9096 166.722C74.7799 166.721 74.6528 166.686 74.5402 166.621C74.4276 166.557 74.3331 166.465 74.2657 166.354L68.1944 156.309C68.1421 156.223 68.1073 156.126 68.092 156.026C68.0768 155.926 68.0814 155.824 68.1056 155.725C68.1298 155.627 68.1731 155.534 68.2331 155.453C68.293 155.371 68.3684 155.302 68.455 155.25C68.5416 155.197 68.6377 155.162 68.7377 155.147C68.8377 155.132 68.9398 155.136 69.038 155.161C69.1362 155.185 69.2287 155.228 69.3102 155.288C69.3917 155.348 69.4605 155.424 69.5129 155.511L75.6455 165.678C75.7461 165.853 75.7735 166.062 75.7218 166.257C75.6702 166.453 75.5436 166.62 75.3695 166.722C75.222 166.782 75.0571 166.782 74.9096 166.722Z" fill="#EA522F"/>
<path d="M78.2213 167.521H78.0373L74.7565 166.722C74.6576 166.701 74.564 166.66 74.4811 166.601C74.3982 166.543 74.3276 166.469 74.2734 166.383C74.2193 166.298 74.1825 166.202 74.1654 166.102C74.1483 166.002 74.1512 165.9 74.1739 165.801C74.1952 165.703 74.2364 165.61 74.2949 165.528C74.3535 165.446 74.4282 165.377 74.5144 165.325C74.6006 165.273 74.6964 165.24 74.796 165.227C74.8957 165.213 74.997 165.221 75.0937 165.248L78.4053 166.016C78.5952 166.073 78.757 166.199 78.8591 166.37C78.9612 166.54 78.9962 166.743 78.9573 166.938C78.9165 167.103 78.8221 167.25 78.6889 167.355C78.5557 167.461 78.3912 167.519 78.2213 167.521Z" fill="#EA522F"/>
<path d="M73.8364 169.211C73.7067 169.209 73.5796 169.174 73.467 169.109C73.3544 169.045 73.2599 168.953 73.1925 168.842L67.5505 159.995C67.4456 159.819 67.4125 159.609 67.4582 159.409C67.5039 159.208 67.6248 159.034 67.7958 158.92C67.9672 158.817 68.1722 158.785 68.367 158.831C68.5618 158.876 68.731 158.997 68.8383 159.166L74.511 168.013C74.6159 168.189 74.649 168.399 74.6034 168.599C74.5577 168.8 74.4368 168.975 74.2657 169.088C74.1397 169.174 73.989 169.217 73.8364 169.211Z" fill="#EA522F"/>
<path d="M77.3933 170.194H77.1787L73.6217 169.211C73.4253 169.153 73.2586 169.022 73.1558 168.845C73.0531 168.668 73.0223 168.458 73.0698 168.258C73.1268 168.063 73.2589 167.898 73.4371 167.8C73.6154 167.702 73.8252 167.679 74.0204 167.736L77.608 168.719C77.7035 168.744 77.793 168.788 77.8712 168.848C77.9495 168.908 78.0148 168.983 78.0634 169.069C78.112 169.155 78.143 169.25 78.1543 169.348C78.1656 169.446 78.157 169.546 78.1292 169.641C78.0875 169.803 77.9919 169.946 77.8581 170.046C77.7243 170.147 77.5604 170.199 77.3933 170.194Z" fill="#EA522F"/>
<path d="M78.4665 172.805C76.9744 172.604 75.5123 172.222 74.1123 171.668C72.8556 171.171 71.6699 170.51 70.5861 169.702C70.5032 169.644 70.4326 169.57 70.3784 169.484C70.3243 169.398 70.2876 169.303 70.2704 169.203C70.2533 169.103 70.2562 169.001 70.2788 168.902C70.3014 168.803 70.3433 168.709 70.4021 168.627C70.4597 168.543 70.5342 168.471 70.6208 168.418C70.7074 168.364 70.8041 168.328 70.905 168.314C71.0059 168.3 71.1087 168.306 71.2069 168.334C71.305 168.361 71.3965 168.409 71.4753 168.473C72.4789 169.186 73.5588 169.783 74.6949 170.255C75.9387 170.743 77.2355 171.083 78.5585 171.269C78.6611 171.276 78.7611 171.304 78.852 171.353C78.9429 171.401 79.0229 171.468 79.0864 171.549C79.15 171.63 79.1958 171.723 79.2211 171.823C79.2463 171.923 79.2505 172.027 79.2331 172.129C79.2105 172.316 79.1198 172.488 78.9784 172.613C78.8371 172.738 78.6548 172.806 78.4665 172.805Z" fill="#EA522F"/>
<path d="M73.9897 118.926C73.1226 117.976 72.531 116.807 72.2789 115.545C72.0269 114.282 72.1239 112.975 72.5595 111.764C72.9951 110.553 73.7527 109.484 74.7505 108.673C75.7483 107.862 76.9484 107.339 78.2211 107.162L87.052 104.796C88.132 104.558 89.2536 104.584 90.3213 104.873C91.389 105.162 92.3712 105.704 93.1846 106.455C93.6163 106.927 93.9499 107.481 94.1658 108.083C96.8092 110.46 99.175 113.129 101.218 116.039C101.617 116.715 102.108 117.575 101.77 118.312C101.433 119.049 99.7158 119.387 99.4092 119.387C99.5103 119.707 99.5103 120.05 99.4092 120.37C98.7653 121.937 95.7603 122.52 91.9581 121.906L80.9194 120.646C81.2567 120.892 86.4388 125.008 85.4576 127.159C85.3341 127.409 85.1529 127.625 84.9289 127.791C84.7049 127.957 84.4445 128.066 84.1697 128.111C83.0045 128.111 82.1153 126.575 80.7661 124.824C79.5022 123.221 78.0389 121.786 76.412 120.554C75.611 120.201 74.8831 119.701 74.2656 119.08L73.9897 118.926Z" fill="#FF8C64"/>
<path d="M84.0472 128.664C82.8206 128.664 81.9314 127.496 80.9809 126.145L80.1836 125.07C78.971 123.518 77.5585 122.134 75.9828 120.954C75.2975 120.647 74.6659 120.232 74.1123 119.725C74.039 119.656 73.9805 119.573 73.9406 119.48C73.9006 119.388 73.88 119.288 73.88 119.187C73.88 119.087 73.9006 118.987 73.9406 118.895C73.9805 118.802 74.039 118.719 74.1123 118.65C74.2556 118.509 74.4483 118.43 74.6489 118.43C74.8496 118.43 75.0422 118.509 75.1855 118.65C75.6703 119.088 76.2181 119.45 76.8106 119.725C78.5313 121.002 80.0776 122.5 81.4101 124.179C81.7167 124.548 81.9927 124.947 82.238 125.285C82.9739 126.298 83.6791 127.251 84.1697 127.189C84.3082 127.164 84.4388 127.107 84.5508 127.021C84.6627 126.936 84.7529 126.825 84.8137 126.698C85.2737 125.684 82.9432 123.012 80.5208 121.107C80.389 121.006 80.2937 120.864 80.2495 120.703C80.2052 120.542 80.2144 120.371 80.2756 120.216C80.3467 120.066 80.4599 119.94 80.6014 119.852C80.7429 119.765 80.9067 119.721 81.0728 119.725L92.1114 121.015C95.9443 121.599 98.2441 121.015 98.796 119.94C98.8292 119.737 98.8292 119.529 98.796 119.326C98.7194 119.139 98.7194 118.929 98.796 118.742C98.8651 118.661 98.9494 118.596 99.0442 118.548C99.139 118.501 99.2422 118.473 99.3479 118.466C100.053 118.466 100.85 118.22 101.034 117.82C101.218 117.421 100.728 116.592 100.544 116.285C99.7055 115 98.7619 113.788 97.7228 112.66C97.5823 112.516 97.5037 112.323 97.5037 112.122C97.5037 111.921 97.5823 111.728 97.7228 111.585C97.7943 111.511 97.8801 111.451 97.9749 111.411C98.0697 111.371 98.1717 111.35 98.2747 111.35C98.3778 111.35 98.4798 111.371 98.5746 111.411C98.6695 111.451 98.7551 111.511 98.8266 111.585C99.9471 112.783 100.972 114.067 101.893 115.425C102.23 115.852 102.459 116.354 102.56 116.889C102.662 117.424 102.633 117.975 102.476 118.496C102.229 118.898 101.893 119.237 101.494 119.487C101.095 119.737 100.644 119.892 100.176 119.94C100.143 120.149 100.092 120.354 100.023 120.554C99.1946 122.459 96.0364 123.227 91.7129 122.551L83.1886 121.568C84.9057 123.227 86.8375 125.592 86.0402 127.374C85.8618 127.743 85.5948 128.063 85.2631 128.304C84.9314 128.545 84.5453 128.7 84.1391 128.756L84.0472 128.664Z" fill="#EA522F"/>
<path d="M99.2558 120.001L87.2666 118.312C87.0683 118.282 86.8897 118.174 86.7694 118.014C86.649 117.853 86.5963 117.651 86.6227 117.452C86.6338 117.352 86.6652 117.255 86.7151 117.167C86.7649 117.08 86.8322 117.004 86.9126 116.943C86.9931 116.883 87.0851 116.839 87.1829 116.816C87.2807 116.793 87.3822 116.789 87.4813 116.807L99.3785 118.466C99.5818 118.466 99.7768 118.546 99.9205 118.69C100.064 118.834 100.145 119.03 100.145 119.233C100.145 119.437 100.064 119.632 99.9205 119.776C99.7768 119.92 99.5818 120.001 99.3785 120.001H99.2558Z" fill="#EA522F"/>
<path d="M101.709 117.544H101.464L88.892 113.244C88.7959 113.217 88.7066 113.169 88.6301 113.105C88.5535 113.041 88.4915 112.961 88.448 112.871C88.4046 112.781 88.3806 112.683 88.3779 112.583C88.3751 112.483 88.3936 112.384 88.432 112.291C88.4953 112.101 88.63 111.944 88.8076 111.852C88.9851 111.76 89.1915 111.742 89.3826 111.8L101.924 116.07C102.021 116.1 102.111 116.151 102.187 116.218C102.264 116.285 102.326 116.368 102.369 116.46C102.412 116.552 102.436 116.653 102.438 116.755C102.441 116.857 102.422 116.958 102.384 117.053C102.334 117.193 102.243 117.316 102.123 117.403C102.002 117.491 101.858 117.54 101.709 117.544Z" fill="#EA522F"/>
<path d="M97.8148 112.537C97.7144 112.565 97.6085 112.565 97.5082 112.537L88.0946 108.083C87.9104 107.99 87.7692 107.83 87.7006 107.635C87.632 107.44 87.6413 107.227 87.7267 107.039C87.8185 106.862 87.9755 106.728 88.1643 106.665C88.3532 106.601 88.5592 106.614 88.7386 106.701L98.1521 111.155C98.245 111.194 98.3289 111.253 98.3984 111.326C98.468 111.399 98.5216 111.486 98.5561 111.581C98.5906 111.677 98.6053 111.778 98.5991 111.879C98.5929 111.98 98.566 112.078 98.5201 112.168C98.4474 112.289 98.3432 112.387 98.2189 112.452C98.0945 112.517 97.9548 112.546 97.8148 112.537Z" fill="#EA522F"/>
<path d="M107.198 1.58607C111.487 2.91473 115.183 5.69424 117.654 9.44971C117.838 9.84904 117.991 10.1869 118.114 10.5248C118.688 12.1804 119.039 13.9057 119.156 15.6546C119.371 19.6479 122.222 21.5523 122.989 26.0985C123.848 31.6583 120.659 37.0953 119.616 36.911C118.574 36.7267 119.616 33.4092 118.328 29.1088C117.073 25.4681 114.794 22.2681 111.766 19.8936L97.6001 12.8593C95.5763 15.6489 93.1831 18.1496 90.4863 20.2929C88.8918 21.5523 88.524 21.6138 86.5309 23.1804C81.2875 27.2658 80.6129 29.3238 79.4477 29.0166C77.3013 28.4945 76.3814 20.938 78.4358 14.4874C79.718 10.2772 82.2932 6.57948 85.7949 3.92059C94.7178 -2.74507 105.481 0.971723 107.198 1.58607Z" fill="#3F469A"/>
<path d="M118.88 22.8732C119.367 23.3927 119.725 24.0203 119.923 24.7047C120.122 25.389 120.156 26.1108 120.022 26.8108C119.889 27.5108 119.592 28.1693 119.156 28.7324C118.72 29.2955 118.157 29.7472 117.513 30.0505C116.869 30.3538 116.163 30.5002 115.452 30.4776C114.741 30.4551 114.045 30.2643 113.422 29.9207C112.799 29.5772 112.265 29.0908 111.866 28.5012C111.466 27.9116 111.211 27.2357 111.123 26.5286C110.389 25.3812 110.13 23.9935 110.399 22.6581C110.668 21.3228 111.444 20.1443 112.564 19.3714C114.649 18.3578 117.5 19.9243 118.88 22.8732Z" fill="#FF8C64"/>
<path d="M116.029 31.0747C115.795 31.1049 115.558 31.1049 115.323 31.0747C115.125 31.0443 114.947 30.9372 114.826 30.7764C114.706 30.6156 114.653 30.4139 114.68 30.2146C114.694 30.1132 114.729 30.0158 114.782 29.9282C114.835 29.8405 114.905 29.7644 114.988 29.7043C115.071 29.6442 115.165 29.6013 115.265 29.5781C115.365 29.555 115.468 29.5521 115.569 29.5696C116.097 29.6653 116.641 29.6011 117.133 29.3853C117.66 29.0693 118.095 28.6182 118.391 28.0784C118.688 27.5385 118.835 26.9294 118.819 26.3135C118.819 25.8835 119.126 25.4842 119.616 25.5763C119.715 25.5762 119.814 25.5963 119.905 25.6352C119.997 25.6742 120.079 25.7312 120.148 25.803C120.216 25.8747 120.27 25.9597 120.305 26.0527C120.34 26.1457 120.356 26.2449 120.352 26.3443C120.397 27.2686 120.179 28.1867 119.723 28.9916C119.267 29.7965 118.592 30.455 117.777 30.8904C117.213 31.0728 116.618 31.1356 116.029 31.0747Z" fill="#EA522F"/>
<path d="M119.555 26.1292C119.366 26.1172 119.186 26.0405 119.047 25.9119C118.907 25.7833 118.816 25.6106 118.788 25.4227C118.748 24.7888 118.603 24.166 118.359 23.5797C118.32 23.4872 118.3 23.3877 118.3 23.2872C118.301 23.1868 118.322 23.0875 118.362 22.9954C118.402 22.9034 118.461 22.8205 118.534 22.7519C118.607 22.6834 118.694 22.6306 118.788 22.5967C118.975 22.5259 119.183 22.5313 119.366 22.6116C119.55 22.692 119.694 22.841 119.769 23.0268C120.068 23.7412 120.254 24.4976 120.321 25.2691C120.334 25.3701 120.327 25.4726 120.3 25.5707C120.273 25.6688 120.226 25.7605 120.164 25.8406C120.101 25.9206 120.023 25.9873 119.934 26.0369C119.845 26.0864 119.748 26.1178 119.647 26.1292H119.555Z" fill="#EA522F"/>
<path d="M118.604 23.0575C118.469 23.0643 118.334 23.0334 118.215 22.9684C118.096 22.9033 117.997 22.8066 117.93 22.6889C116.673 20.4772 114.434 19.31 112.809 20.0779C112.462 20.2405 112.157 20.4825 111.92 20.7844C111.777 20.9251 111.584 21.0039 111.383 21.0039C111.183 21.0039 110.99 20.9251 110.847 20.7844C110.773 20.7155 110.715 20.6322 110.675 20.5397C110.635 20.4473 110.614 20.3476 110.614 20.2469C110.614 20.1461 110.635 20.0464 110.675 19.954C110.715 19.8615 110.773 19.7783 110.847 19.7093C111.231 19.2226 111.725 18.8333 112.288 18.5728C113.657 18.1271 115.144 18.2109 116.454 18.8078C117.765 19.4047 118.806 20.4714 119.371 21.7981C119.471 21.9735 119.499 22.1816 119.447 22.3771C119.396 22.5727 119.269 22.7399 119.095 22.8425C118.96 22.9666 118.787 23.0422 118.604 23.0575Z" fill="#EA522F"/>
<path d="M115.354 28.3716C115.156 28.3802 114.962 28.3113 114.813 28.1795C114.664 28.0478 114.573 27.8633 114.557 27.6651L114.25 21.8902C114.242 21.6834 114.314 21.4813 114.451 21.3266C114.588 21.1719 114.78 21.0766 114.986 21.0608C115.087 21.0567 115.187 21.0726 115.282 21.1074C115.377 21.1422 115.463 21.1954 115.537 21.2639C115.611 21.3323 115.671 21.4148 115.713 21.5064C115.756 21.5981 115.779 21.6972 115.783 21.7981L116.09 27.5729C116.103 27.6731 116.095 27.775 116.065 27.8717C116.036 27.9683 115.986 28.0575 115.919 28.1332C115.852 28.2089 115.77 28.2694 115.678 28.3105C115.586 28.3516 115.486 28.3724 115.385 28.3716H115.354Z" fill="#EA522F"/>
<path d="M114.986 25.0848C114.832 25.0749 114.683 25.0217 114.557 24.9312L112.901 23.8561C112.817 23.7997 112.744 23.7271 112.687 23.6425C112.631 23.5579 112.591 23.463 112.571 23.3631C112.552 23.2633 112.551 23.1605 112.571 23.0606C112.591 22.9608 112.63 22.8657 112.687 22.781C112.743 22.6963 112.815 22.6236 112.9 22.5669C112.984 22.5103 113.079 22.4708 113.179 22.4509C113.278 22.4309 113.381 22.4308 113.481 22.4505C113.58 22.4703 113.675 22.5095 113.76 22.566L115.415 23.6718C115.5 23.7247 115.573 23.7942 115.629 23.876C115.686 23.9579 115.726 24.0504 115.746 24.148C115.766 24.2457 115.766 24.3463 115.746 24.444C115.726 24.5417 115.687 24.6343 115.63 24.7162C115.563 24.8272 115.468 24.9193 115.356 24.9837C115.243 25.0482 115.116 25.083 114.986 25.0848Z" fill="#EA522F"/>
<path d="M149.881 131.735H146.6C146.396 131.735 146.201 131.655 146.057 131.511C145.914 131.366 145.833 131.171 145.833 130.968C145.833 130.764 145.914 130.569 146.057 130.424C146.201 130.28 146.396 130.2 146.6 130.2H149.911C150.114 130.2 150.309 130.28 150.453 130.424C150.597 130.569 150.678 130.764 150.678 130.968C150.678 131.171 150.597 131.366 150.453 131.511C150.309 131.655 150.114 131.735 149.911 131.735H149.881Z" fill="#EA522F"/>
<path d="M144.606 108.175C144.413 108.176 144.227 108.103 144.085 107.972C143.943 107.841 143.855 107.662 143.84 107.469L142.828 95.489C142.811 95.29 142.871 95.0921 142.997 94.9373C143.123 94.7824 143.304 94.6828 143.503 94.6596C143.602 94.6468 143.702 94.6544 143.798 94.6818C143.894 94.7093 143.984 94.756 144.061 94.8193C144.139 94.8825 144.203 94.9609 144.249 95.0496C144.295 95.1383 144.323 95.2356 144.33 95.3354L145.373 107.346C145.381 107.447 145.37 107.548 145.339 107.645C145.308 107.741 145.258 107.83 145.193 107.908C145.127 107.985 145.047 108.048 144.957 108.094C144.867 108.14 144.769 108.167 144.668 108.175H144.606Z" fill="#EA522F"/>
<path d="M138.719 153.453C130.084 162.877 123.106 173.699 118.083 185.46C117.194 187.917 116.489 190.958 114.22 196.211C111.399 202.692 109.436 205.119 110.417 206.379C111.399 207.638 113.76 206.901 122.682 203.86C130.072 201.341 133.783 200.081 136.328 198.976C146.242 194.644 155.842 189.625 165.059 183.955C186.216 169.825 205.718 136.558 198.451 128.142C191.184 119.725 156.78 134.131 138.719 153.453Z" fill="url(#paint0_linear_238_1227)"/>
<path d="M110.264 207.146C110.093 207.147 109.927 207.091 109.791 206.986C109.656 206.881 109.56 206.734 109.517 206.569C109.475 206.403 109.489 206.227 109.558 206.07C109.627 205.914 109.746 205.784 109.896 205.703C144.623 186.603 174.657 159.979 197.807 127.773C197.925 127.606 198.104 127.493 198.305 127.458C198.507 127.424 198.713 127.47 198.88 127.589C199.047 127.707 199.16 127.886 199.194 128.088C199.229 128.29 199.182 128.497 199.064 128.664C175.787 161.069 145.573 187.853 110.632 207.054C110.521 207.121 110.393 207.153 110.264 207.146Z" fill="#BBBBF9"/>
<path d="M76.9945 177.044C85.5384 180.441 93.4482 185.26 100.39 191.296C101.74 192.617 103.15 194.368 106.278 197.04C110.111 200.327 112.165 201.31 111.889 202.416C111.613 203.522 109.896 203.829 103.181 204.658C97.5694 205.365 94.7791 205.703 92.8166 205.795C85.014 206.153 77.1959 205.958 69.4208 205.211C51.299 202.723 28.2404 187.303 30.3255 179.562C32.4106 171.822 59.1487 170.286 76.9945 177.044Z" fill="url(#paint1_linear_238_1227)"/>
<path d="M111.889 203.184C99.0893 202.53 86.3847 200.616 73.959 197.471C58.6423 193.554 43.8644 187.767 29.9576 180.238C29.8699 180.193 29.7922 180.131 29.729 180.055C29.6658 179.979 29.6185 179.891 29.5899 179.796C29.5613 179.702 29.552 179.602 29.5625 179.504C29.573 179.406 29.603 179.311 29.651 179.224C29.6933 179.134 29.7537 179.053 29.8282 178.987C29.9027 178.92 29.9899 178.87 30.0846 178.838C30.1792 178.806 30.2793 178.794 30.3787 178.803C30.4781 178.811 30.5748 178.84 30.6629 178.887C55.7273 192.446 83.5 200.223 111.95 201.648C112.148 201.664 112.332 201.756 112.464 201.905C112.595 202.054 112.664 202.248 112.656 202.447C112.656 202.546 112.636 202.645 112.597 202.736C112.558 202.828 112.501 202.91 112.429 202.979C112.358 203.048 112.273 203.102 112.18 203.137C112.087 203.172 111.988 203.188 111.889 203.184Z" fill="#BBBBF9"/>
<path d="M125.044 180.023C120.626 184.4 115.505 188.004 109.896 190.682C108.7 191.173 107.228 191.573 104.714 192.771C101.648 194.276 100.483 195.29 99.8693 194.829C99.256 194.368 99.532 193.201 100.851 188.685C101.924 185.03 102.476 183.187 102.966 181.958C104.844 177.01 107.078 172.206 109.651 167.583C116.121 156.985 131.943 146.848 136.174 150.227C140.406 153.606 134.089 170.777 125.044 180.023Z" fill="#5B98E8"/>
<path d="M99.869 195.597C99.7588 195.628 99.642 195.628 99.5317 195.597C99.4388 195.557 99.3549 195.499 99.2854 195.426C99.2158 195.352 99.1622 195.265 99.1277 195.17C99.0932 195.075 99.0785 194.974 99.0847 194.873C99.0909 194.772 99.1179 194.673 99.1638 194.583C103.052 186.788 107.705 179.4 113.054 172.528C119.617 164.024 127.208 156.368 135.653 149.736C135.73 149.663 135.821 149.607 135.921 149.571C136.021 149.535 136.128 149.521 136.234 149.528C136.339 149.536 136.443 149.565 136.536 149.615C136.63 149.665 136.713 149.733 136.779 149.816C136.845 149.9 136.893 149.996 136.92 150.099C136.947 150.201 136.953 150.309 136.936 150.414C136.92 150.519 136.881 150.619 136.824 150.709C136.767 150.798 136.692 150.875 136.603 150.934C121.439 162.806 109.11 177.917 100.513 195.167C100.456 195.291 100.366 195.397 100.252 195.473C100.138 195.549 100.006 195.592 99.869 195.597Z" fill="#BBBBF9"/>
<path d="M119.034 209.266C113.263 206.933 107.932 203.63 103.273 199.498C102.03 198.122 100.71 196.82 99.3172 195.597C96.7416 193.324 95.3618 192.525 95.5458 191.911C95.7297 191.296 96.8949 190.958 101.464 190.436C105.235 190.006 107.136 189.791 108.486 189.73C113.765 189.519 119.053 189.693 124.308 190.252C136.573 192.034 152.088 202.539 150.647 207.822C149.206 213.106 131.084 213.966 119.034 209.266Z" fill="#5B98E8"/>
<path d="M150.647 208.529C150.526 208.556 150.4 208.556 150.279 208.529C133.414 199.244 114.696 193.84 95.4845 192.709C95.2866 192.694 95.1025 192.602 94.9709 192.453C94.8394 192.304 94.7707 192.109 94.7793 191.911C94.7789 191.808 94.7997 191.707 94.8405 191.614C94.8812 191.52 94.9411 191.436 95.016 191.366C95.091 191.297 95.1795 191.244 95.276 191.211C95.3725 191.178 95.4748 191.165 95.5765 191.173C115.004 192.289 133.936 197.747 150.984 207.146C151.135 207.228 151.254 207.357 151.323 207.514C151.391 207.671 151.405 207.846 151.363 208.012C151.321 208.178 151.224 208.325 151.089 208.43C150.954 208.535 150.787 208.591 150.617 208.59L150.647 208.529Z" fill="#BBBBF9"/>
<path d="M106.615 177.043C105.39 182.069 103.316 186.848 100.482 191.173C99.5081 192.374 98.5972 193.625 97.7535 194.921C96.2203 197.317 95.8523 198.515 95.2084 198.453C94.5645 198.392 94.2885 197.471 93.2766 193.784C92.4487 190.713 92.0501 189.208 91.8355 188.102C91.032 183.801 90.53 179.449 90.333 175.078C90.333 164.787 97.0175 150.749 101.464 151.302C105.91 151.855 108.976 166.6 106.615 177.043Z" fill="#5B98E8"/>
<path d="M94.5646 199.314C94.3744 199.322 94.1882 199.257 94.0453 199.131C93.9023 199.005 93.8137 198.828 93.798 198.638C93.1548 191.481 93.2267 184.278 94.0127 177.136C94.9914 168.275 97.051 159.568 100.145 151.21C100.182 151.115 100.236 151.029 100.306 150.955C100.375 150.881 100.459 150.822 100.551 150.781C100.644 150.739 100.744 150.717 100.845 150.714C100.946 150.711 101.047 150.729 101.142 150.765C101.236 150.801 101.323 150.856 101.397 150.926C101.47 150.995 101.529 151.079 101.57 151.172C101.612 151.264 101.634 151.364 101.637 151.466C101.64 151.567 101.623 151.668 101.586 151.763C96.0807 166.714 93.9853 182.709 95.4539 198.576C95.4623 198.677 95.4506 198.779 95.4196 198.875C95.3887 198.972 95.339 199.061 95.2735 199.138C95.2079 199.215 95.1278 199.278 95.0377 199.324C94.9477 199.37 94.8494 199.398 94.7486 199.406L94.5646 199.314Z" fill="#BBBBF9"/>
<path d="M78.8957 198.054C83.3205 195.409 88.1631 193.539 93.2154 192.525C94.2579 192.371 95.5151 192.341 97.7841 191.88C100.544 191.296 101.678 190.713 102.077 191.204C102.476 191.696 102.077 192.586 100.084 195.873C98.4894 198.576 97.6922 199.959 97.0176 200.849C94.5136 204.441 91.7571 207.849 88.7692 211.048C81.4714 218.266 66.7226 223.334 64.0243 219.679C61.3259 216.024 69.7888 203.675 78.8957 198.054Z" fill="#5B98E8"/>
<path d="M64.5454 221C64.4011 220.995 64.2612 220.949 64.1418 220.867C64.0225 220.786 63.9285 220.672 63.8708 220.539C63.7869 220.356 63.7784 220.146 63.8473 219.957C63.9161 219.767 64.0568 219.612 64.2388 219.526C78.7462 213.024 91.6211 203.358 101.924 191.235C101.99 191.158 102.071 191.095 102.162 191.05C102.252 191.005 102.351 190.978 102.452 190.971C102.553 190.964 102.655 190.976 102.751 191.009C102.847 191.041 102.936 191.092 103.012 191.158C103.089 191.225 103.151 191.306 103.197 191.397C103.242 191.487 103.269 191.586 103.276 191.687C103.283 191.789 103.27 191.89 103.238 191.987C103.206 192.083 103.155 192.172 103.089 192.249C92.6248 204.49 79.5745 214.248 64.8828 220.816C64.7895 220.907 64.6727 220.971 64.5454 221Z" fill="#BBBBF9"/>
<path d="M102.322 178.211C106.4 181.037 105.726 188.993 100.85 196.027C95.975 203.061 88.7386 206.44 84.6911 203.614C80.6436 200.788 81.2874 192.801 86.1628 185.798C91.0383 178.794 98.2748 175.385 102.322 178.211Z" fill="#FFC5D2"/>
<path d="M113.361 206.901C112.196 211.754 104.499 214.058 96.1589 212.092C87.8186 210.126 81.962 204.566 83.0965 199.805C84.231 195.044 91.9581 192.648 100.298 194.645C108.639 196.641 114.495 202.047 113.361 206.901Z" fill="#FFC5D2"/>
<path d="M114.71 206.501C110.08 208.283 103.825 203.215 100.728 195.197C97.6307 187.18 98.9186 179.224 103.549 177.443C108.179 175.661 114.434 180.699 117.531 188.716C120.628 196.733 119.34 204.689 114.71 206.501Z" fill="#FFC5D2"/>
<path d="M104.714 190.098C104.799 191.125 104.747 192.158 104.561 193.17C104.565 195.583 105.411 197.92 106.952 199.774C105.139 199.33 103.246 199.33 101.433 199.774C99.4399 200.266 98.7039 201.095 97.2015 201.064C95.699 201.034 94.1352 200.481 92.1421 197.808C94.2435 197.167 96.0823 195.863 97.3854 194.092C98.9801 191.758 99.5866 188.886 99.0719 186.105C101.433 186.719 104.162 187.979 104.714 190.098Z" fill="#122275"/>
<path d="M30.7242 140.613C47.6928 140.613 61.4485 126.833 61.4485 109.834C61.4485 92.8353 47.6928 79.0552 30.7242 79.0552C13.7557 79.0552 0 92.8353 0 109.834C0 126.833 13.7557 140.613 30.7242 140.613Z" fill="url(#paint2_linear_238_1227)"/>
<path d="M33.4839 111.616C33.5246 112.001 33.4841 112.391 33.3647 112.759C33.2453 113.128 33.0499 113.468 32.7911 113.756C32.5323 114.044 32.216 114.274 31.8625 114.432C31.5091 114.59 31.1265 114.671 30.7396 114.671C30.3527 114.671 29.9701 114.59 29.6167 114.432C29.2633 114.274 28.9468 114.044 28.6881 113.756C28.4293 113.468 28.2339 113.128 28.1145 112.759C27.9952 112.391 27.9546 112.001 27.9953 111.616C28.0671 110.937 28.3871 110.308 28.8938 109.851C29.4005 109.395 30.058 109.142 30.7396 109.142C31.4212 109.142 32.0787 109.395 32.5854 109.851C33.0921 110.308 33.4122 110.937 33.4839 111.616Z" fill="#3F469A"/>
<path d="M30.9083 85.598H30.5403C30.1677 85.598 29.8657 85.9005 29.8657 86.2738V109.435C29.8657 109.808 30.1677 110.11 30.5403 110.11H30.9083C31.2808 110.11 31.5828 109.808 31.5828 109.435V86.2738C31.5828 85.9005 31.2808 85.598 30.9083 85.598Z" fill="#3F469A"/>
<path d="M44.1609 98.4159L43.8217 98.0608C43.5876 97.8157 43.1993 97.8071 42.9546 98.0417L31.1247 109.383C30.88 109.617 30.8714 110.006 31.1056 110.251L31.4448 110.606C31.679 110.851 32.0672 110.86 32.3119 110.625L44.1418 99.2844C44.3865 99.0499 44.3951 98.661 44.1609 98.4159Z" fill="#3F469A"/>
<path d="M4.69137 109.834H0.735825C0.594604 109.834 0.45867 109.78 0.356 109.683C0.253331 109.586 0.19176 109.453 0.183914 109.312C0.183914 109.165 0.242012 109.024 0.34552 108.921C0.449027 108.817 0.589443 108.759 0.735825 108.759H4.84465C4.91576 108.759 4.98612 108.773 5.05145 108.801C5.11678 108.829 5.17574 108.871 5.22457 108.922C5.2734 108.974 5.31114 109.036 5.33546 109.102C5.35977 109.169 5.37014 109.241 5.36596 109.312C5.36968 109.395 5.35321 109.479 5.31805 109.555C5.28289 109.631 5.23007 109.697 5.16393 109.748C5.09779 109.799 5.02028 109.834 4.93804 109.849C4.85579 109.864 4.77123 109.859 4.69137 109.834Z" fill="#3F469A"/>
<path d="M60.8965 109.834H56.7877C56.7192 109.834 56.6514 109.82 56.5882 109.794C56.5249 109.768 56.4675 109.73 56.4191 109.681C56.3707 109.633 56.3323 109.575 56.3061 109.512C56.2799 109.448 56.2664 109.38 56.2664 109.312C56.2622 109.241 56.2726 109.169 56.297 109.102C56.3213 109.036 56.359 108.974 56.4078 108.922C56.4567 108.871 56.5155 108.829 56.5809 108.801C56.6462 108.773 56.7166 108.759 56.7877 108.759H60.8965C61.0429 108.759 61.1833 108.817 61.2868 108.921C61.3903 109.024 61.4484 109.165 61.4484 109.312C61.4406 109.453 61.379 109.586 61.2763 109.683C61.1736 109.78 61.0377 109.834 60.8965 109.834Z" fill="#3F469A"/>
<path d="M31.3989 135.391V139.538C31.3915 139.674 31.3343 139.802 31.238 139.899C31.1418 139.995 31.0135 140.052 30.8776 140.06C30.7364 140.06 30.6004 140.006 30.4978 139.909C30.3951 139.812 30.3335 139.679 30.3257 139.538V135.391C30.3335 135.25 30.3951 135.117 30.4978 135.02C30.6004 134.922 30.7364 134.868 30.8776 134.869C31.0135 134.876 31.1418 134.933 31.238 135.03C31.3343 135.126 31.3915 135.255 31.3989 135.391Z" fill="#3F469A"/>
<path d="M31.3989 79.0859V83.202C31.3991 83.3435 31.3452 83.4797 31.2482 83.5825C31.1513 83.6854 31.0186 83.7471 30.8776 83.7549C30.7312 83.7549 30.5909 83.6967 30.4874 83.593C30.3839 83.4893 30.3257 83.3487 30.3257 83.202V79.0859C30.3257 78.9393 30.3839 78.7986 30.4874 78.6949C30.5909 78.5912 30.7312 78.533 30.8776 78.533C31.0186 78.5408 31.1513 78.6026 31.2482 78.7054C31.3452 78.8083 31.3991 78.9444 31.3989 79.0859Z" fill="#3F469A"/>
<path d="M155.308 53.7748C152.773 53.8222 150.286 53.0817 148.189 51.655C146.091 50.2283 144.487 48.1855 143.596 45.8078C142.705 43.4301 142.572 40.8343 143.214 38.3774C143.856 35.9206 145.242 33.7235 147.182 32.0884C149.65 29.9336 152.872 28.8492 156.138 29.0739C159.405 29.2986 162.448 30.8138 164.599 33.2864C166.75 35.7589 167.832 38.9862 167.608 42.2582C167.384 45.5302 165.871 48.579 163.403 50.7338C161.162 52.6981 158.285 53.779 155.308 53.7748ZM155.308 32.2727C153.055 32.2524 150.873 33.0612 149.175 34.5458C147.317 36.1751 146.181 38.4772 146.017 40.9456C145.853 43.4141 146.675 45.8466 148.301 47.7081C149.928 49.5697 152.226 50.7077 154.69 50.8719C157.154 51.0361 159.582 50.2129 161.441 48.5836C162.863 47.3944 163.894 45.8027 164.398 44.0167C164.903 42.2307 164.857 40.3338 164.267 38.5744C163.677 36.8149 162.571 35.2749 161.092 34.156C159.614 33.037 157.833 32.3913 155.983 32.3034L155.308 32.2727Z" fill="#FFC5D2"/>
<path d="M174.503 65.0788C174.283 65.0768 174.066 65.0295 173.866 64.9396C173.665 64.8497 173.485 64.7194 173.338 64.5566L161.072 50.5495C160.939 50.3994 160.837 50.224 160.773 50.0338C160.708 49.8436 160.682 49.6424 160.696 49.442C160.711 49.2416 160.765 49.0461 160.856 48.867C160.947 48.6879 161.072 48.5289 161.226 48.3993C161.537 48.1356 161.939 48.004 162.345 48.0327C162.752 48.0614 163.131 48.248 163.403 48.5529L175.668 62.5293C175.801 62.6794 175.903 62.8547 175.968 63.0449C176.032 63.2351 176.058 63.4364 176.044 63.6367C176.03 63.8371 175.975 64.0326 175.885 64.2117C175.794 64.3908 175.668 64.5498 175.515 64.6795C175.381 64.8098 175.222 64.9122 175.049 64.9808C174.875 65.0493 174.689 65.0826 174.503 65.0788Z" fill="#FFC5D2"/>
<path d="M165.519 64.3416C165.302 64.3476 165.087 64.3036 164.891 64.2131C164.694 64.1225 164.521 63.9878 164.384 63.8194C164.251 63.6693 164.149 63.4939 164.084 63.3037C164.02 63.1135 163.994 62.9123 164.008 62.7119C164.023 62.5115 164.077 62.316 164.168 62.1369C164.258 61.9578 164.384 61.7988 164.537 61.6692L174.043 53.3755C174.354 53.1666 174.73 53.0786 175.1 53.1282C175.471 53.1778 175.811 53.3615 176.056 53.6447C176.301 53.9279 176.434 54.2911 176.431 54.6658C176.427 55.0406 176.287 55.401 176.036 55.6793L166.531 63.973C166.249 64.2143 165.889 64.3453 165.519 64.3416Z" fill="#FFC5D2"/>
<path d="M182.445 45.5426C179.546 45.5503 176.738 44.5293 174.519 42.6607C172.301 40.7921 170.814 38.1967 170.324 35.3347C169.833 32.4728 170.37 29.5293 171.84 27.0263C173.31 24.5234 175.617 22.6227 178.352 21.6615C181.087 20.7002 184.074 20.7405 186.782 21.7752C189.491 22.8099 191.746 24.7721 193.148 27.3137C194.549 29.8554 195.007 32.8123 194.44 35.66C193.873 38.5077 192.317 41.0621 190.049 42.8702C187.887 44.5936 185.207 45.5352 182.445 45.5426ZM182.445 23.8561C180.691 23.8276 178.965 24.3021 177.471 25.2237C175.978 26.1454 174.778 27.4756 174.014 29.0577C173.25 30.6397 172.954 32.4076 173.16 34.1528C173.366 35.898 174.066 37.5478 175.177 38.9076C176.129 40.0616 177.347 40.9661 178.726 41.5428C180.104 42.1194 181.603 42.351 183.091 42.2173C184.579 42.0837 186.012 41.5889 187.267 40.7758C188.521 39.9627 189.559 38.8557 190.291 37.5505C191.022 36.2454 191.425 34.7814 191.465 33.2851C191.505 31.7888 191.181 30.3053 190.52 28.9629C189.859 27.6205 188.882 26.4595 187.672 25.5805C186.463 24.7014 185.058 24.1306 183.579 23.9176L182.445 23.8561Z" fill="#5B98E8"/>
<path d="M175.76 26.2214C175.529 26.2226 175.302 26.1706 175.094 26.0694C174.887 25.9681 174.705 25.8205 174.564 25.6377L163.25 11.047C163.106 10.9042 162.992 10.7344 162.914 10.5472C162.836 10.36 162.796 10.1593 162.796 9.95654C162.796 9.75379 162.836 9.55304 162.914 9.36588C162.992 9.17872 163.106 9.00885 163.25 8.86607C163.575 8.62065 163.982 8.50936 164.387 8.55506C164.792 8.60076 165.164 8.79997 165.427 9.11181L176.833 23.7025C177.084 24.0208 177.199 24.4255 177.153 24.8283C177.107 25.2311 176.904 25.5994 176.588 25.8528C176.354 26.0548 176.066 26.183 175.76 26.2214Z" fill="#5B98E8"/>
<path d="M163.25 20.6001C163.043 20.6003 162.839 20.5586 162.648 20.4776C162.458 20.3966 162.287 20.278 162.143 20.1288C162 19.9796 161.889 19.8029 161.815 19.6094C161.742 19.416 161.708 19.2096 161.717 19.0028L162.146 9.38828C162.149 9.16675 162.204 8.94902 162.305 8.75194C162.406 8.55485 162.551 8.3837 162.728 8.25173C162.901 8.11947 163.099 8.02399 163.31 7.97117C163.521 7.91834 163.74 7.90929 163.955 7.94457L173.46 9.75689C173.867 9.83428 174.226 10.0703 174.459 10.4131C174.692 10.7558 174.78 11.1772 174.702 11.5846C174.625 11.9919 174.389 12.3518 174.047 12.5851C173.705 12.8184 173.285 12.906 172.878 12.8286L165.12 11.3542L164.783 19.1871C164.752 19.5728 164.577 19.9326 164.293 20.1945C164.008 20.4565 163.636 20.6013 163.25 20.6001Z" fill="#5B98E8"/>
<defs>
<linearGradient id="paint0_linear_238_1227" x1="110.161" y1="174.267" x2="271.388" y2="141.084" gradientUnits="userSpaceOnUse">
<stop stop-color="#FB696D"/>
<stop offset="1" stop-color="#FFB5BA"/>
</linearGradient>
<linearGradient id="paint1_linear_238_1227" x1="30.1936" y1="192.609" x2="156.537" y2="134.718" gradientUnits="userSpaceOnUse">
<stop stop-color="#FB696D"/>
<stop offset="1" stop-color="#FFB5BA"/>
</linearGradient>
<linearGradient id="paint2_linear_238_1227" x1="6.41485e-08" y1="115.848" x2="111.109" y2="95.1961" gradientUnits="userSpaceOnUse">
<stop stop-color="#FB696D"/>
<stop offset="1" stop-color="#FFB5BA"/>
</linearGradient>
</defs>
</svg>
